# Made in Blockbench 4.12.3
mtllib gamba2.mtl

o cuboid
v 0.75 0.125 0.75
v 0.75 0.125 -0.75
v 0.75 0 0.75
v 0.75 0 -0.75
v -0.75 0.125 0.75
v -0.75 0.125 -0.75
v -0.75 0 0.75
v -0.75 0 -0.75
vt 0.5 1
vt 0.4375 1
vt 0.4375 0.9375
vt 0.5 0.9375
vt 0.5 0.9375
vt 0.5 1
vt 0.4375 1
vt 0.4375 0.9375
vt 0.4375 0.9375
vt 0.5 0.9375
vt 0.5 1
vt 0.4375 1
vt 1.25 -0.25
vt 1.25 1
vt 0 1
vt 0 -0.25
vt 0.5 0.9375
vt 0.5 1
vt 0.4375 1
vt 0.4375 0.9375
vt 0.5 1
vt 0.4375 1
vt 0.4375 0.9375
vt 0.5 0.9375
vn 1 0 0
vn -1 0 0
vn 0 1 0
vn 0 -1 0
vn 0 0 1
vn 0 0 -1
usemtl m_4743e512-53d2-34e7-1c23-b002b64b7996
f 2/1/1 1/2/1 3/3/1 4/4/1
f 7/5/2 5/6/2 6/7/2 8/8/2
f 5/9/3 1/10/3 2/11/3 6/12/3
usemtl none
f 4/13/4 3/14/4 7/15/4 8/16/4
usemtl m_4743e512-53d2-34e7-1c23-b002b64b7996
f 3/17/5 1/18/5 5/19/5 7/20/5
f 6/21/6 2/22/6 4/23/6 8/24/6
o cuboid
v 0.6875 0.25 0.6875
v 0.6875 0.25 -0.6875
v 0.6875 0.125 0.6875
v 0.6875 0.125 -0.6875
v -0.6875 0.25 0.6875
v -0.6875 0.25 -0.6875
v -0.6875 0.125 0.6875
v -0.6875 0.125 -0.6875
vt 0.5 1
vt 0.4375 1
vt 0.4375 0.9375
vt 0.5 0.9375
vt 0.5 0.9375
vt 0.5 1
vt 0.4375 1
vt 0.4375 0.9375
vt 0.4375 0.9375
vt 0.5 0.9375
vt 0.5 1
vt 0.4375 1
vt 0.5 0.9375
vt 0.5 1
vt 0.4375 1
vt 0.4375 0.9375
vt 0.5 0.9375
vt 0.5 1
vt 0.4375 1
vt 0.4375 0.9375
vt 0.5 1
vt 0.4375 1
vt 0.4375 0.9375
vt 0.5 0.9375
vn 1 0 0
vn -1 0 0
vn 0 1 0
vn 0 -1 0
vn 0 0 1
vn 0 0 -1
usemtl m_4743e512-53d2-34e7-1c23-b002b64b7996
f 10/25/7 9/26/7 11/27/7 12/28/7
f 15/29/8 13/30/8 14/31/8 16/32/8
f 13/33/9 9/34/9 10/35/9 14/36/9
f 12/37/10 11/38/10 15/39/10 16/40/10
f 11/41/11 9/42/11 13/43/11 15/44/11
f 14/45/12 10/46/12 12/47/12 16/48/12
o cube
v 0.625 1.375 0.625
v 0.625 1.375 -0.625
v 0.625 0.25 0.625
v 0.625 0.25 -0.625
v -0.625 1.375 -0.625
v -0.625 1.375 0.625
v -0.625 0.25 -0.625
v -0.625 0.25 0.625
vt 0.375 1
vt 0.4375 1
vt 0.4375 0.9375
vt 0.375 0.9375
vt 0.375 1
vt 0.4375 1
vt 0.4375 0.9375
vt 0.375 0.9375
vt 0.375 1
vt 0.4375 1
vt 0.4375 0.9375
vt 0.375 0.9375
vt 0.375 1
vt 0.4375 1
vt 0.4375 0.9375
vt 0.375 0.9375
vt 0.375 1
vt 0.4375 1
vt 0.4375 0.9375
vt 0.375 0.9375
vn 0 0 -1
vn 1 0 0
vn 0 0 1
vn -1 0 0
vn 0 1 0
usemtl m_4743e512-53d2-34e7-1c23-b002b64b7996
f 20/52/13 23/51/13 21/50/13 18/49/13
f 19/56/14 20/55/14 18/54/14 17/53/14
f 24/60/15 19/59/15 17/58/15 22/57/15
f 23/64/16 24/63/16 22/62/16 21/61/16
f 22/68/17 17/67/17 18/66/17 21/65/17
o cube
v 0.75 1.25 0.625
v 0.75 1.25 -0.625
v 0.75 1.125 0.625
v 0.75 1.125 -0.625
v 0.625 1.25 -0.625
v 0.625 1.25 0.625
v 0.625 1.125 -0.625
v 0.625 1.125 0.625
vt 0.375 1
vt 0.4375 1
vt 0.4375 0.9375
vt 0.375 0.9375
vt 0.375 1
vt 0.4375 1
vt 0.4375 0.9375
vt 0.375 0.9375
vt 0.375 1
vt 0.4375 1
vt 0.4375 0.9375
vt 0.375 0.9375
vt 0.375 1
vt 0.4375 1
vt 0.4375 0.9375
vt 0.375 0.9375
vt 0.375 1
vt 0.4375 1
vt 0.4375 0.9375
vt 0.375 0.9375
vt 0.375 1
vt 0.4375 1
vt 0.4375 0.9375
vt 0.375 0.9375
vn 0 0 -1
vn 1 0 0
vn 0 0 1
vn -1 0 0
vn 0 1 0
vn 0 -1 0
usemtl m_4743e512-53d2-34e7-1c23-b002b64b7996
f 28/72/18 31/71/18 29/70/18 26/69/18
f 27/76/19 28/75/19 26/74/19 25/73/19
f 32/80/20 27/79/20 25/78/20 30/77/20
f 31/84/21 32/83/21 30/82/21 29/81/21
f 30/88/22 25/87/22 26/86/22 29/85/22
f 31/92/23 28/91/23 27/90/23 32/89/23
o cube
v 0.8125 1.375 0.625
v 0.8125 1.375 -0.625
v 0.8125 1.25 0.625
v 0.8125 1.25 -0.625
v 0.625 1.375 -0.625
v 0.625 1.375 0.625
v 0.625 1.25 -0.625
v 0.625 1.25 0.625
vt 0.375 1
vt 0.4375 1
vt 0.4375 0.9375
vt 0.375 0.9375
vt 0.375 1
vt 0.4375 1
vt 0.4375 0.9375
vt 0.375 0.9375
vt 0.375 1
vt 0.4375 1
vt 0.4375 0.9375
vt 0.375 0.9375
vt 0.375 1
vt 0.4375 1
vt 0.4375 0.9375
vt 0.375 0.9375
vt 0.375 1
vt 0.4375 1
vt 0.4375 0.9375
vt 0.375 0.9375
vt 0.375 1
vt 0.4375 1
vt 0.4375 0.9375
vt 0.375 0.9375
vn 0 0 -1
vn 1 0 0
vn 0 0 1
vn -1 0 0
vn 0 1 0
vn 0 -1 0
usemtl m_4743e512-53d2-34e7-1c23-b002b64b7996
f 36/96/24 39/95/24 37/94/24 34/93/24
f 35/100/25 36/99/25 34/98/25 33/97/25
f 40/104/26 35/103/26 33/102/26 38/101/26
f 39/108/27 40/107/27 38/106/27 37/105/27
f 38/112/28 33/111/28 34/110/28 37/109/28
f 39/116/29 36/115/29 35/114/29 40/113/29
o cube
v 0.625 3.1875 -0.5
v 0.625 3.1875 -0.625
v 0.625 1.375 -0.5
v 0.625 1.375 -0.625
v -0.625 3.1875 -0.625
v -0.625 3.1875 -0.5
v -0.625 1.375 -0.625
v -0.625 1.375 -0.5
vt 0.4375 0.9375
vt 0.5 0.9375
vt 0.5 0.875
vt 0.4375 0.875
vt 0.4375 0.9375
vt 0.5 0.9375
vt 0.5 0.875
vt 0.4375 0.875
vt 0.4375 0.9375
vt 0.5 0.9375
vt 0.5 0.875
vt 0.4375 0.875
vt 0.4375 0.9375
vt 0.5 0.9375
vt 0.5 0.875
vt 0.4375 0.875
vt 0.4375 0.9375
vt 0.5 0.9375
vt 0.5 0.875
vt 0.4375 0.875
vt 0.4375 0.9375
vt 0.5 0.9375
vt 0.5 0.875
vt 0.4375 0.875
vn 0 0 -1
vn 1 0 0
vn 0 0 1
vn -1 0 0
vn 0 1 0
vn 0 -1 0
usemtl m_4743e512-53d2-34e7-1c23-b002b64b7996
f 44/120/30 47/119/30 45/118/30 42/117/30
f 43/124/31 44/123/31 42/122/31 41/121/31
f 48/128/32 43/127/32 41/126/32 46/125/32
f 47/132/33 48/131/33 46/130/33 45/129/33
f 46/136/34 41/135/34 42/134/34 45/133/34
f 47/140/35 44/139/35 43/138/35 48/137/35
o cube
v 0.625 3.1875 0.625
v 0.625 3.1875 0.5
v 0.625 1.375 0.625
v 0.625 1.375 0.5
v -0.625 3.1875 0.5
v -0.625 3.1875 0.625
v -0.625 1.375 0.5
v -0.625 1.375 0.625
vt 0.4375 0.9375
vt 0.5 0.9375
vt 0.5 0.875
vt 0.4375 0.875
vt 0.4375 0.9375
vt 0.5 0.9375
vt 0.5 0.875
vt 0.4375 0.875
vt 0.4375 0.9375
vt 0.5 0.9375
vt 0.5 0.875
vt 0.4375 0.875
vt 0.4375 0.9375
vt 0.5 0.9375
vt 0.5 0.875
vt 0.4375 0.875
vt 0.4375 0.9375
vt 0.5 0.9375
vt 0.5 0.875
vt 0.4375 0.875
vt 0.4375 0.9375
vt 0.5 0.9375
vt 0.5 0.875
vt 0.4375 0.875
vn 0 0 -1
vn 1 0 0
vn 0 0 1
vn -1 0 0
vn 0 1 0
vn 0 -1 0
usemtl m_4743e512-53d2-34e7-1c23-b002b64b7996
f 52/144/36 55/143/36 53/142/36 50/141/36
f 51/148/37 52/147/37 50/146/37 49/145/37
f 56/152/38 51/151/38 49/150/38 54/149/38
f 55/156/39 56/155/39 54/154/39 53/153/39
f 54/160/40 49/159/40 50/158/40 53/157/40
f 55/164/41 52/163/41 51/162/41 56/161/41
o cube
v -0.4999999999999999 3.1875 -0.5
v -0.6249999999999999 3.1875 -0.5
v -0.4999999999999999 1.375 -0.5
v -0.6249999999999999 1.375 -0.5
v -0.6250000000000001 3.1875 0.5
v -0.5000000000000001 3.1875 0.5
v -0.6250000000000001 1.375 0.5
v -0.5000000000000001 1.375 0.5
vt 0.4375 0.9375
vt 0.5 0.9375
vt 0.5 0.875
vt 0.4375 0.875
vt 0.4375 0.9375
vt 0.5 0.9375
vt 0.5 0.875
vt 0.4375 0.875
vt 0.4375 0.9375
vt 0.5 0.9375
vt 0.5 0.875
vt 0.4375 0.875
vt 0.4375 0.9375
vt 0.5 0.9375
vt 0.5 0.875
vt 0.4375 0.875
vt 0.4375 0.9375
vt 0.5 0.9375
vt 0.5 0.875
vt 0.4375 0.875
vt 0.4375 0.9375
vt 0.5 0.9375
vt 0.5 0.875
vt 0.4375 0.875
vn -1 0 -2.220446049250313e-16
vn 2.220446049250313e-16 0 -1
vn 1 0 2.220446049250313e-16
vn -2.220446049250313e-16 0 1
vn 0 1 0
vn 0 -1 0
usemtl m_4743e512-53d2-34e7-1c23-b002b64b7996
f 60/168/42 63/167/42 61/166/42 58/165/42
f 59/172/43 60/171/43 58/170/43 57/169/43
f 64/176/44 59/175/44 57/174/44 62/173/44
f 63/180/45 64/179/45 62/178/45 61/177/45
f 62/184/46 57/183/46 58/182/46 61/181/46
f 63/188/47 60/187/47 59/186/47 64/185/47
o cube
v 0.5208392354724375 1.3558514468473088 0.5
v 0.5208392354724375 1.3558514468473088 -0.5
v 0.5208392354724375 1.3558514468473088 0.5
v 0.5208392354724375 1.3558514468473088 -0.5
v 0.14206991108075712 3.064369459307192 -0.5
v 0.14206991108075712 3.064369459307192 0.5
v 0.14206991108075712 3.064369459307192 -0.5
v 0.14206991108075712 3.064369459307192 0.5
vt 0.125 0.8125
vt 0.18750000000000003 0.8125
vt 0.18750000000000003 0.75
vt 0.125 0.75
vn 0.9762960071199333 0.21643961393810307 0
usemtl m_4743e512-53d2-34e7-1c23-b002b64b7996
f 70/192/48 65/191/48 66/190/48 69/189/48
o cube
v 0.625 3.1875 0.5
v 0.625 3.1875 -0.5
v 0.625 3.0625 0.5
v 0.625 3.0625 -0.5
v -0.5 3.1875 -0.5
v -0.5 3.1875 0.5
v -0.5 3.0625 -0.5
v -0.5 3.0625 0.5
vt 0.4375 0.9375
vt 0.5 0.9375
vt 0.5 0.875
vt 0.4375 0.875
vt 0.4375 0.9375
vt 0.5 0.9375
vt 0.5 0.875
vt 0.4375 0.875
vt 0.4375 0.9375
vt 0.5 0.9375
vt 0.5 0.875
vt 0.4375 0.875
vt 0.4375 0.9375
vt 0.5 0.9375
vt 0.5 0.875
vt 0.4375 0.875
vt 0.4375 0.9375
vt 0.5 0.9375
vt 0.5 0.875
vt 0.4375 0.875
vt 0.4375 0.9375
vt 0.5 0.9375
vt 0.5 0.875
vt 0.4375 0.875
vn 0 0 -1
vn 1 0 0
vn 0 0 1
vn -1 0 0
vn 0 1 0
vn 0 -1 0
usemtl m_4743e512-53d2-34e7-1c23-b002b64b7996
f 76/196/49 79/195/49 77/194/49 74/193/49
f 75/200/50 76/199/50 74/198/50 73/197/50
f 80/204/51 75/203/51 73/202/51 78/201/51
f 79/208/52 80/207/52 78/206/52 77/205/52
f 78/212/53 73/211/53 74/210/53 77/209/53
f 79/216/54 76/215/54 75/214/54 80/213/54
o cube
v 0.1875 1.375 -0.625
v 0.1875 1.375 -0.75
v 0.1875 1.125 -0.625
v 0.1875 1.125 -0.75
v -0.0625 1.375 -0.75
v -0.0625 1.375 -0.625
v -0.0625 1.125 -0.75
v -0.0625 1.125 -0.625
vt 0.4375 0.9375
vt 0.5 0.9375
vt 0.5 0.875
vt 0.4375 0.875
vt 0.4375 0.9375
vt 0.5 0.9375
vt 0.5 0.875
vt 0.4375 0.875
vt 0.4375 0.9375
vt 0.5 0.9375
vt 0.5 0.875
vt 0.4375 0.875
vt 0.4375 0.9375
vt 0.5 0.9375
vt 0.5 0.875
vt 0.4375 0.875
vt 0.4375 0.9375
vt 0.5 0.9375
vt 0.5 0.875
vt 0.4375 0.875
vt 0.4375 0.9375
vt 0.5 0.9375
vt 0.5 0.875
vt 0.4375 0.875
vn 0 0 -1
vn 1 0 0
vn 0 0 1
vn -1 0 0
vn 0 1 0
vn 0 -1 0
usemtl m_4743e512-53d2-34e7-1c23-b002b64b7996
f 84/220/55 87/219/55 85/218/55 82/217/55
f 83/224/56 84/223/56 82/222/56 81/221/56
f 88/228/57 83/227/57 81/226/57 86/225/57
f 87/232/58 88/231/58 86/230/58 85/229/58
f 86/236/59 81/235/59 82/234/59 85/233/59
f 87/240/60 84/239/60 83/238/60 88/237/60
o cube
v -0.0625 1.375 -0.625
v -0.0625 1.375 -0.75
v -0.0625 1.125 -0.625
v -0.0625 1.125 -0.75
v -0.125 1.375 -0.75
v -0.125 1.375 -0.625
v -0.125 1.125 -0.75
v -0.125 1.125 -0.625
vt 0.4375 0.9375
vt 0.5 0.9375
vt 0.5 0.875
vt 0.4375 0.875
vt 0.4375 0.9375
vt 0.5 0.9375
vt 0.5 0.875
vt 0.4375 0.875
vt 0.4375 0.9375
vt 0.5 0.9375
vt 0.5 0.875
vt 0.4375 0.875
vt 0.4375 0.9375
vt 0.5 0.9375
vt 0.5 0.875
vt 0.4375 0.875
vt 0.4375 0.9375
vt 0.5 0.9375
vt 0.5 0.875
vt 0.4375 0.875
vt 0.4375 0.9375
vt 0.5 0.9375
vt 0.5 0.875
vt 0.4375 0.875
vn 0 0 -1
vn 1 0 0
vn 0 0 1
vn -1 0 0
vn 0 1 0
vn 0 -1 0
usemtl m_4743e512-53d2-34e7-1c23-b002b64b7996
f 92/244/61 95/243/61 93/242/61 90/241/61
f 91/248/62 92/247/62 90/246/62 89/245/62
f 96/252/63 91/251/63 89/250/63 94/249/63
f 95/256/64 96/255/64 94/254/64 93/253/64
f 94/260/65 89/259/65 90/258/65 93/257/65
f 95/264/66 92/263/66 91/262/66 96/261/66
o cube
v -0.0625 1.125 -0.625
v -0.0625 1.125 -0.75
v 0.1875 1.125 -0.625
v 0.1875 1.125 -0.75
v -0.0625 1.0625 -0.75
v -0.0625 1.0625 -0.625
v 0.1875 1.0625 -0.75
v 0.1875 1.0625 -0.625
vt 0.4375 0.9375
vt 0.5 0.9375
vt 0.5 0.875
vt 0.4375 0.875
vt 0.4375 0.9375
vt 0.5 0.9375
vt 0.5 0.875
vt 0.4375 0.875
vt 0.4375 0.9375
vt 0.5 0.9375
vt 0.5 0.875
vt 0.4375 0.875
vt 0.4375 0.9375
vt 0.5 0.9375
vt 0.5 0.875
vt 0.4375 0.875
vt 0.4375 0.9375
vt 0.5 0.9375
vt 0.5 0.875
vt 0.4375 0.875
vt 0.4375 0.9375
vt 0.5 0.9375
vt 0.5 0.875
vt 0.4375 0.875
vn 0 0 -1
vn 2.220446049250313e-16 1 0
vn 0 0 1
vn -2.220446049250313e-16 -1 0
vn -1 2.220446049250313e-16 0
vn 1 -2.220446049250313e-16 0
usemtl m_4743e512-53d2-34e7-1c23-b002b64b7996
f 100/268/67 103/267/67 101/266/67 98/265/67
f 99/272/68 100/271/68 98/270/68 97/269/68
f 104/276/69 99/275/69 97/274/69 102/273/69
f 103/280/70 104/279/70 102/278/70 101/277/70
f 102/284/71 97/283/71 98/282/71 101/281/71
f 103/288/72 100/287/72 99/286/72 104/285/72
o cube
v -0.0625 1.4375 -0.625
v -0.0625 1.4375 -0.75
v 0.1875 1.4375 -0.625
v 0.1875 1.4375 -0.75
v -0.0625 1.375 -0.75
v -0.0625 1.375 -0.625
v 0.1875 1.375 -0.75
v 0.1875 1.375 -0.625
vt 0.4375 0.9375
vt 0.5 0.9375
vt 0.5 0.875
vt 0.4375 0.875
vt 0.4375 0.9375
vt 0.5 0.9375
vt 0.5 0.875
vt 0.4375 0.875
vt 0.4375 0.9375
vt 0.5 0.9375
vt 0.5 0.875
vt 0.4375 0.875
vt 0.4375 0.9375
vt 0.5 0.9375
vt 0.5 0.875
vt 0.4375 0.875
vt 0.4375 0.9375
vt 0.5 0.9375
vt 0.5 0.875
vt 0.4375 0.875
vt 0.4375 0.9375
vt 0.5 0.9375
vt 0.5 0.875
vt 0.4375 0.875
vn 0 0 -1
vn 2.220446049250313e-16 1 0
vn 0 0 1
vn -2.220446049250313e-16 -1 0
vn -1 2.220446049250313e-16 0
vn 1 -2.220446049250313e-16 0
usemtl m_4743e512-53d2-34e7-1c23-b002b64b7996
f 108/292/73 111/291/73 109/290/73 106/289/73
f 107/296/74 108/295/74 106/294/74 105/293/74
f 112/300/75 107/299/75 105/298/75 110/297/75
f 111/304/76 112/303/76 110/302/76 109/301/76
f 110/308/77 105/307/77 106/306/77 109/305/77
f 111/312/78 108/311/78 107/310/78 112/309/78
o cube
v 0.25 1.375 -0.625
v 0.25 1.375 -0.75
v 0.25 1.125 -0.625
v 0.25 1.125 -0.75
v 0.1875 1.375 -0.75
v 0.1875 1.375 -0.625
v 0.1875 1.125 -0.75
v 0.1875 1.125 -0.625
vt 0.4375 0.9375
vt 0.5 0.9375
vt 0.5 0.875
vt 0.4375 0.875
vt 0.4375 0.9375
vt 0.5 0.9375
vt 0.5 0.875
vt 0.4375 0.875
vt 0.4375 0.9375
vt 0.5 0.9375
vt 0.5 0.875
vt 0.4375 0.875
vt 0.4375 0.9375
vt 0.5 0.9375
vt 0.5 0.875
vt 0.4375 0.875
vt 0.4375 0.9375
vt 0.5 0.9375
vt 0.5 0.875
vt 0.4375 0.875
vt 0.4375 0.9375
vt 0.5 0.9375
vt 0.5 0.875
vt 0.4375 0.875
vn 0 0 -1
vn 1 0 0
vn 0 0 1
vn -1 0 0
vn 0 1 0
vn 0 -1 0
usemtl m_4743e512-53d2-34e7-1c23-b002b64b7996
f 116/316/79 119/315/79 117/314/79 114/313/79
f 115/320/80 116/319/80 114/318/80 113/317/80
f 120/324/81 115/323/81 113/322/81 118/321/81
f 119/328/82 120/327/82 118/326/82 117/325/82
f 118/332/83 113/331/83 114/330/83 117/329/83
f 119/336/84 116/335/84 115/334/84 120/333/84
o cube
v 0.125 1.9375 -0.6875
v 0.125 1.9375 -0.8125
v 0.125 1.1875 -0.6875
v 0.125 1.1875 -0.8125
v 0 1.9375 -0.8125
v 0 1.9375 -0.6875
v 0 1.1875 -0.8125
v 0 1.1875 -0.6875
vt 0.4375 1
vt 0.5 1
vt 0.5 0.9375
vt 0.4375 0.9375
vt 0.4375 1
vt 0.5 1
vt 0.5 0.9375
vt 0.4375 0.9375
vt 0.4375 1
vt 0.5 1
vt 0.5 0.9375
vt 0.4375 0.9375
vt 0.4375 1
vt 0.5 1
vt 0.5 0.9375
vt 0.4375 0.9375
vt 0.4375 0.9375
vt 0.5 0.9375
vt 0.5 0.875
vt 0.4375 0.875
vn 0 0 -1
vn 1 0 0
vn 0 0 1
vn -1 0 0
vn 0 -1 0
usemtl m_4743e512-53d2-34e7-1c23-b002b64b7996
f 124/340/85 127/339/85 125/338/85 122/337/85
f 123/344/86 124/343/86 122/342/86 121/341/86
f 128/348/87 123/347/87 121/346/87 126/345/87
f 127/352/88 128/351/88 126/350/88 125/349/88
f 127/356/89 124/355/89 123/354/89 128/353/89
o cube
v 0.15625 2.125 -0.65625
v 0.15625 2.125 -0.84375
v 0.15625 1.9375 -0.65625
v 0.15625 1.9375 -0.84375
v -0.03125 2.125 -0.84375
v -0.03125 2.125 -0.65625
v -0.03125 1.9375 -0.84375
v -0.03125 1.9375 -0.65625
vt 0.1875 0.8125
vt 0.375 0.8125
vt 0.375 0.625
vt 0.1875 0.625
vt 0.1875 0.8125
vt 0.375 0.8125
vt 0.375 0.625
vt 0.1875 0.625
vt 0.1875 0.8125
vt 0.375 0.8125
vt 0.375 0.625
vt 0.1875 0.625
vt 0.1875 0.8125
vt 0.375 0.8125
vt 0.375 0.625
vt 0.1875 0.625
vt 0.375 0.625
vt 0.1875 0.625
vt 0.1875 0.8125
vt 0.375 0.8125
vt 0.4375 0.9375
vt 0.5 0.9375
vt 0.5 0.875
vt 0.4375 0.875
vn 0 0 -1
vn 1 0 0
vn 0 0 1
vn -1 0 0
vn 0 1 0
vn 0 -1 0
usemtl m_4743e512-53d2-34e7-1c23-b002b64b7996
f 132/360/90 135/359/90 133/358/90 130/357/90
f 131/364/91 132/363/91 130/362/91 129/361/91
f 136/368/92 131/367/92 129/366/92 134/365/92
f 135/372/93 136/371/93 134/370/93 133/369/93
f 134/376/94 129/375/94 130/374/94 133/373/94
f 135/380/95 132/379/95 131/378/95 136/377/95