# Made in Blockbench 4.12.3
mtllib Chair.mtl

o seat
v 0.4375 0.75 0.5
v 0.4375 0.75 -0.4375
v 0.4375 0.625 0.5
v 0.4375 0.625 -0.4375
v -0.4375 0.75 0.5
v -0.4375 0.75 -0.4375
v -0.4375 0.625 0.5
v -0.4375 0.625 -0.4375
vt 1 1
vt 0 1
vt 0 0.875
vt 1 0.875
vt 1 0.875
vt 1 1
vt 0 1
vt 0 0.875
vt 0 0
vt 1 0
vt 1 1
vt 0 1
vt 1 0
vt 1 1
vt 0 1
vt 0 0
vt 1 0.875
vt 1 1
vt 0 1
vt 0 0.875
vt 1 1
vt 0 1
vt 0 0.875
vt 1 0.875
vn 1 0 0
vn -1 0 0
vn 0 1 0
vn 0 -1 0
vn 0 0 1
vn 0 0 -1
usemtl m_cae614e4-7c3d-1c56-8778-892c41571e18
f 2/1/1 1/2/1 3/3/1 4/4/1
f 7/5/2 5/6/2 6/7/2 8/8/2
f 5/9/3 1/10/3 2/11/3 6/12/3
f 4/13/4 3/14/4 7/15/4 8/16/4
f 3/17/5 1/18/5 5/19/5 7/20/5
f 6/21/6 2/22/6 4/23/6 8/24/6
o cuboid
v 0.25 0.75 0.5000000000000001
v 0.25 1.875 0.4999999999999999
v 0.25 0.75 0.3750000000000001
v 0.25 1.875 0.3749999999999999
v -0.25 0.75 0.5000000000000001
v -0.25 1.875 0.4999999999999999
v -0.25 0.75 0.3750000000000001
v -0.25 1.875 0.3749999999999999
vt 0.046875 0.984375
vt 0.015625 0.984375
vt 0.015625 0.953125
vt 0.046875 0.953125
vt 0.109375 0.984375
vt 0.078125 0.984375
vt 0.078125 0.953125
vt 0.109375 0.953125
vt 0.171875 0.984375
vt 0.140625 0.984375
vt 0.140625 0.953125
vt 0.171875 0.953125
vt 0.234375 0.984375
vt 0.203125 0.984375
vt 0.203125 0.953125
vt 0.234375 0.953125
vt 0.296875 0.984375
vt 0.265625 0.984375
vt 0.265625 0.953125
vt 0.296875 0.953125
vt 0.359375 0.984375
vt 0.328125 0.984375
vt 0.328125 0.953125
vt 0.359375 0.953125
vn 1 0 0
vn -1 0 0
vn 0 2.220446049250313e-16 1
vn 0 -2.220446049250313e-16 -1
vn 0 -1 2.220446049250313e-16
vn 0 1 -2.220446049250313e-16
usemtl m_cae614e4-7c3d-1c56-8778-892c41571e18
f 10/25/7 9/26/7 11/27/7 12/28/7
f 15/29/8 13/30/8 14/31/8 16/32/8
f 13/33/9 9/34/9 10/35/9 14/36/9
f 12/37/10 11/38/10 15/39/10 16/40/10
f 11/41/11 9/42/11 13/43/11 15/44/11
f 14/45/12 10/46/12 12/47/12 16/48/12
o cuboid
v -0.3125 0.75 0.5000000000000001
v -0.3125 1.625 0.4999999999999999
v -0.3125 0.75 0.3750000000000001
v -0.3125 1.625 0.3749999999999999
v -0.4375 0.75 0.5000000000000001
v -0.4375 1.625 0.4999999999999999
v -0.4375 0.75 0.3750000000000001
v -0.4375 1.625 0.3749999999999999
vt 1 1
vt 0 1
vt 0 0.875
vt 1 0.875
vt 1 0.875
vt 1 1
vt 0 1
vt 0 0.875
vt 0 0
vt 1 0
vt 1 1
vt 0 1
vt 1 0
vt 1 1
vt 0 1
vt 0 0
vt 1 0.875
vt 1 1
vt 0 1
vt 0 0.875
vt 1 1
vt 0 1
vt 0 0.875
vt 1 0.875
vn 1 0 0
vn -1 0 0
vn 0 2.220446049250313e-16 1
vn 0 -2.220446049250313e-16 -1
vn 0 -1 2.220446049250313e-16
vn 0 1 -2.220446049250313e-16
usemtl m_cae614e4-7c3d-1c56-8778-892c41571e18
f 18/49/13 17/50/13 19/51/13 20/52/13
f 23/53/14 21/54/14 22/55/14 24/56/14
f 21/57/15 17/58/15 18/59/15 22/60/15
f 20/61/16 19/62/16 23/63/16 24/64/16
f 19/65/17 17/66/17 21/67/17 23/68/17
f 22/69/18 18/70/18 20/71/18 24/72/18
o cuboid
v 0.4375 0.75 0.5000000000000001
v 0.4375 1.625 0.4999999999999999
v 0.4375 0.75 0.3750000000000001
v 0.4375 1.625 0.3749999999999999
v 0.3125 0.75 0.5000000000000001
v 0.3125 1.625 0.4999999999999999
v 0.3125 0.75 0.3750000000000001
v 0.3125 1.625 0.3749999999999999
vt 1 1
vt 0 1
vt 0 0.875
vt 1 0.875
vt 1 0.875
vt 1 1
vt 0 1
vt 0 0.875
vt 0 0
vt 1 0
vt 1 1
vt 0 1
vt 1 0
vt 1 1
vt 0 1
vt 0 0
vt 1 0.875
vt 1 1
vt 0 1
vt 0 0.875
vt 1 1
vt 0 1
vt 0 0.875
vt 1 0.875
vn 1 0 0
vn -1 0 0
vn 0 2.220446049250313e-16 1
vn 0 -2.220446049250313e-16 -1
vn 0 -1 2.220446049250313e-16
vn 0 1 -2.220446049250313e-16
usemtl m_cae614e4-7c3d-1c56-8778-892c41571e18
f 26/73/19 25/74/19 27/75/19 28/76/19
f 31/77/20 29/78/20 30/79/20 32/80/20
f 29/81/21 25/82/21 26/83/21 30/84/21
f 28/85/22 27/86/22 31/87/22 32/88/22
f 27/89/23 25/90/23 29/91/23 31/92/23
f 30/93/24 26/94/24 28/95/24 32/96/24
o cube
v 0.4375 1.75 0.5
v 0.4375 1.75 0.375
v 0.4375 1.625 0.5
v 0.4375 1.625 0.375
v 0.25 1.75 0.375
v 0.25 1.75 0.5
v 0.25 1.625 0.375
v 0.25 1.625 0.5
vt 0.8125 0.125
vt 1 0.125
vt 1 0
vt 0.8125 0
vt 0.875 0.125
vt 1 0.125
vt 1 0
vt 0.875 0
vt 0.8125 0.125
vt 1 0.125
vt 1 0
vt 0.8125 0
vt 0.875 0.125
vt 1 0.125
vt 1 0
vt 0.875 0
vt 0.8125 0.125
vt 1 0.125
vt 1 0
vt 0.8125 0
vt 0.8125 0.125
vt 1 0.125
vt 1 0
vt 0.8125 0
vn 0 0 -1
vn 1 0 0
vn 0 0 1
vn -1 0 0
vn 0 1 0
vn 0 -1 0
usemtl m_cae614e4-7c3d-1c56-8778-892c41571e18
f 36/100/25 39/99/25 37/98/25 34/97/25
f 35/104/26 36/103/26 34/102/26 33/101/26
f 40/108/27 35/107/27 33/106/27 38/105/27
f 39/112/28 40/111/28 38/110/28 37/109/28
f 38/116/29 33/115/29 34/114/29 37/113/29
f 39/120/30 36/119/30 35/118/30 40/117/30
o cube
v -0.25 1.75 0.5
v -0.25 1.75 0.375
v -0.25 1.625 0.5
v -0.25 1.625 0.375
v -0.4375 1.75 0.375
v -0.4375 1.75 0.5
v -0.4375 1.625 0.375
v -0.4375 1.625 0.5
vt 0 1
vt 0.0625 1
vt 0.0625 0.9375
vt 0 0.9375
vt 0.0625 1
vt 0.125 1
vt 0.125 0.9375
vt 0.0625 0.9375
vt 0.3125 1
vt 0.375 1
vt 0.375 0.9375
vt 0.3125 0.9375
vt 0.25 1
vt 0.3125 1
vt 0.3125 0.9375
vt 0.25 0.9375
vt 0.1875 1
vt 0.25 1
vt 0.25 0.9375
vt 0.1875 0.9375
vt 0.125 1
vt 0.1875 1
vt 0.1875 0.9375
vt 0.125 0.9375
vn 0 0 -1
vn 1 0 0
vn 0 0 1
vn -1 0 0
vn 0 1 0
vn 0 -1 0
usemtl m_cae614e4-7c3d-1c56-8778-892c41571e18
f 44/124/31 47/123/31 45/122/31 42/121/31
f 43/128/32 44/127/32 42/126/32 41/125/32
f 48/132/33 43/131/33 41/130/33 46/129/33
f 47/136/34 48/135/34 46/134/34 45/133/34
f 46/140/35 41/139/35 42/138/35 45/137/35
f 47/144/36 44/143/36 43/142/36 48/141/36
o cube
v 0.4375 0.625 -0.3125
v 0.4375 0.625 -0.4375
v 0.4375 0 -0.3125
v 0.4375 0 -0.4375
v 0.3125 0.625 -0.4375
v 0.3125 0.625 -0.3125
v 0.3125 0 -0.4375
v 0.3125 0 -0.3125
vt 0 1
vt 0.125 1
vt 0.125 0.375
vt 0 0.375
vt 0 1
vt 0.125 1
vt 0.125 0.375
vt 0 0.375
vt 0 1
vt 0.125 1
vt 0.125 0.375
vt 0 0.375
vt 0 1
vt 0.125 1
vt 0.125 0.375
vt 0 0.375
vt 0 1
vt 0.125 1
vt 0.125 0.875
vt 0 0.875
vt 0 1
vt 0.125 1
vt 0.125 0.875
vt 0 0.875
vn 0 0 -1
vn 1 0 0
vn 0 0 1
vn -1 0 0
vn 0 1 0
vn 0 -1 0
usemtl m_cae614e4-7c3d-1c56-8778-892c41571e18
f 52/148/37 55/147/37 53/146/37 50/145/37
f 51/152/38 52/151/38 50/150/38 49/149/38
f 56/156/39 51/155/39 49/154/39 54/153/39
f 55/160/40 56/159/40 54/158/40 53/157/40
f 54/164/41 49/163/41 50/162/41 53/161/41
f 55/168/42 52/167/42 51/166/42 56/165/42
o cube
v -0.3125 0.625 -0.3125
v -0.3125 0.625 -0.4375
v -0.3125 0 -0.3125
v -0.3125 0 -0.4375
v -0.4375 0.625 -0.4375
v -0.4375 0.625 -0.3125
v -0.4375 0 -0.4375
v -0.4375 0 -0.3125
vt 0 1
vt 0.125 1
vt 0.125 0.375
vt 0 0.375
vt 0 1
vt 0.125 1
vt 0.125 0.375
vt 0 0.375
vt 0 1
vt 0.125 1
vt 0.125 0.375
vt 0 0.375
vt 0 1
vt 0.125 1
vt 0.125 0.375
vt 0 0.375
vt 0 1
vt 0.125 1
vt 0.125 0.875
vt 0 0.875
vt 0 1
vt 0.125 1
vt 0.125 0.875
vt 0 0.875
vn 0 0 -1
vn 1 0 0
vn 0 0 1
vn -1 0 0
vn 0 1 0
vn 0 -1 0
usemtl m_cae614e4-7c3d-1c56-8778-892c41571e18
f 60/172/43 63/171/43 61/170/43 58/169/43
f 59/176/44 60/175/44 58/174/44 57/173/44
f 64/180/45 59/179/45 57/178/45 62/177/45
f 63/184/46 64/183/46 62/182/46 61/181/46
f 62/188/47 57/187/47 58/186/47 61/185/47
f 63/192/48 60/191/48 59/190/48 64/189/48
o cube
v 0.4375 0.625 0.5
v 0.4375 0.625 0.375
v 0.4375 0 0.5
v 0.4375 0 0.375
v 0.3125 0.625 0.375
v 0.3125 0.625 0.5
v 0.3125 0 0.375
v 0.3125 0 0.5
vt 0 1
vt 0.125 1
vt 0.125 0.375
vt 0 0.375
vt 0 1
vt 0.125 1
vt 0.125 0.375
vt 0 0.375
vt 0 1
vt 0.125 1
vt 0.125 0.375
vt 0 0.375
vt 0 1
vt 0.125 1
vt 0.125 0.375
vt 0 0.375
vt 0 1
vt 0.125 1
vt 0.125 0.875
vt 0 0.875
vt 0 1
vt 0.125 1
vt 0.125 0.875
vt 0 0.875
vn 0 0 -1
vn 1 0 0
vn 0 0 1
vn -1 0 0
vn 0 1 0
vn 0 -1 0
usemtl m_cae614e4-7c3d-1c56-8778-892c41571e18
f 68/196/49 71/195/49 69/194/49 66/193/49
f 67/200/50 68/199/50 66/198/50 65/197/50
f 72/204/51 67/203/51 65/202/51 70/201/51
f 71/208/52 72/207/52 70/206/52 69/205/52
f 70/212/53 65/211/53 66/210/53 69/209/53
f 71/216/54 68/215/54 67/214/54 72/213/54
o cube
v -0.3125 0.625 0.5
v -0.3125 0.625 0.375
v -0.3125 0 0.5
v -0.3125 0 0.375
v -0.4375 0.625 0.375
v -0.4375 0.625 0.5
v -0.4375 0 0.375
v -0.4375 0 0.5
vt 0 1
vt 0.125 1
vt 0.125 0.375
vt 0 0.375
vt 0 1
vt 0.125 1
vt 0.125 0.375
vt 0 0.375
vt 0 1
vt 0.125 1
vt 0.125 0.375
vt 0 0.375
vt 0 1
vt 0.125 1
vt 0.125 0.375
vt 0 0.375
vt 0 1
vt 0.125 1
vt 0.125 0.875
vt 0 0.875
vt 0 1
vt 0.125 1
vt 0.125 0.875
vt 0 0.875
vn 0 0 -1
vn 1 0 0
vn 0 0 1
vn -1 0 0
vn 0 1 0
vn 0 -1 0
usemtl m_cae614e4-7c3d-1c56-8778-892c41571e18
f 76/220/55 79/219/55 77/218/55 74/217/55
f 75/224/56 76/223/56 74/222/56 73/221/56
f 80/228/57 75/227/57 73/226/57 78/225/57
f 79/232/58 80/231/58 78/230/58 77/229/58
f 78/236/59 73/235/59 74/234/59 77/233/59
f 79/240/60 76/239/60 75/238/60 80/237/60